<?xml version="1.0" encoding="UTF-8"?>
<svg xmlns="http://www.w3.org/2000/svg" xmlns:xlink="http://www.w3.org/1999/xlink" width="50px" height="50px" viewBox="0 0 50 50" version="1.1">
<g id="surface1">
<path style=" stroke:none;fill-rule:evenodd;fill:rgb(51.764706%,55.294118%,84.313725%);fill-opacity:1;" d="M -0.246094 -0.246094 C 16.421875 -0.246094 33.089844 -0.246094 49.753906 -0.246094 C 49.753906 16.421875 49.753906 33.089844 49.753906 49.753906 C 33.089844 49.753906 16.421875 49.753906 -0.246094 49.753906 C -0.246094 33.089844 -0.246094 16.421875 -0.246094 -0.246094 Z M -0.246094 -0.246094 "/>
<path style=" stroke:none;fill-rule:evenodd;fill:rgb(95.294118%,95.686275%,98.431373%);fill-opacity:1;" d="M 8.578125 24.753906 C 11.835938 27.6875 14.941406 30.789062 17.890625 34.070312 C 14.957031 37.246094 11.933594 40.351562 8.824219 43.382812 C 8 42.910156 7.675781 42.253906 7.84375 41.421875 C 10.300781 39.046875 12.671875 36.59375 14.949219 34.070312 C 12.507812 31.871094 10.136719 29.582031 7.84375 27.207031 C 7.542969 26.226562 7.789062 25.410156 8.578125 24.753906 Z M 8.578125 24.753906 "/>
<path style=" stroke:none;fill-rule:evenodd;fill:rgb(91.764706%,92.156863%,97.254902%);fill-opacity:1;" d="M 16.421875 41.421875 C 20.671875 41.421875 24.917969 41.421875 29.167969 41.421875 C 29.167969 42.238281 29.167969 43.054688 29.167969 43.871094 C 24.917969 43.871094 20.671875 43.871094 16.421875 43.871094 C 16.421875 43.054688 16.421875 42.238281 16.421875 41.421875 Z M 16.421875 41.421875 "/>
</g>
</svg>
